<?xml version="1.0" encoding="iso-8859-1"?>
<!-- Generator: Adobe Illustrator 18.0.0, SVG Export Plug-In . SVG Version: 6.00 Build 0)  -->
<!DOCTYPE svg PUBLIC "-//W3C//DTD SVG 1.1//EN" "http://www.w3.org/Graphics/SVG/1.1/DTD/svg11.dtd">
<svg version="1.1" id="Capa_1" xmlns="http://www.w3.org/2000/svg" xmlns:xlink="http://www.w3.org/1999/xlink" x="0px" y="0px"
	 viewBox="0 0 352.684 352.684" style="enable-background:new 0 0 352.684 352.684;" xml:space="preserve">
<g>
	<polygon points="257.933,249.764 257.933,352.684 331.342,352.684 331.342,292.195 	"/>
	<polygon points="228.469,192.273 228.469,118.604 124.213,118.604 124.213,192.275 176.342,161.44 	"/>
	<polygon points="21.342,352.684 94.751,352.684 94.751,249.671 21.342,292.195 	"/>
	<path d="M102.417,214.074v138.578h147.85V214.074l-73.925-43.727L102.417,214.074z M173.02,347.046h-27.596v-64.393h27.596V347.046
		z M207.264,347.046h-27.602v-64.393h27.602V347.046z M208.537,252.374h-64.393c0-17.783,14.416-32.196,32.197-32.196
		C194.125,220.178,208.537,234.591,208.537,252.374z"/>
	<polygon points="135.335,111.332 217.348,111.333 180.175,41.98 180.175,19.547 195.506,19.547 195.506,11.881 180.175,11.881 
		180.175,0 172.509,0 172.509,11.881 157.176,11.881 157.176,19.547 172.509,19.547 172.509,41.98 	"/>
</g>
<g>
</g>
<g>
</g>
<g>
</g>
<g>
</g>
<g>
</g>
<g>
</g>
<g>
</g>
<g>
</g>
<g>
</g>
<g>
</g>
<g>
</g>
<g>
</g>
<g>
</g>
<g>
</g>
<g>
</g>
</svg>
